<svg width="357" height="202" viewBox="0 0 357 202" fill="none" xmlns="http://www.w3.org/2000/svg">
<path fill-rule="evenodd" clip-rule="evenodd" d="M177.163 47.6483L208.379 0.290283L298.908 151.593L269.676 201.505L209.227 104.292L177.163 47.6483Z" fill="#4BB488"/>
<path fill-rule="evenodd" clip-rule="evenodd" d="M298.909 151.593L269.676 201.505L326.597 201.475L356.421 151.231L298.909 151.593Z" fill="#357D5F"/>
<path fill-rule="evenodd" clip-rule="evenodd" d="M208.378 0.290283H267.529L356.421 151.231L298.908 151.593L208.378 0.290283Z" fill="#70E3B3"/>
<path fill-rule="evenodd" clip-rule="evenodd" d="M0.263184 151.388L90.374 0.295532L180.903 151.599L151.671 201.51L91.2219 104.297L34.1693 201.709L0.263184 151.388Z" fill="#4BB488"/>
<path fill-rule="evenodd" clip-rule="evenodd" d="M91.2196 104.297L34.167 201.71L91.207 201.49L120.547 151.46L91.2196 104.297Z" fill="#357D5F"/>
<path fill-rule="evenodd" clip-rule="evenodd" d="M180.903 151.599L151.67 201.51L208.591 201.48L238.416 151.235L180.903 151.599Z" fill="#357D5F"/>
<path fill-rule="evenodd" clip-rule="evenodd" d="M90.3721 0.295532H149.522L238.415 151.235L180.901 151.599L90.3721 0.295532Z" fill="#70E3B3"/>
</svg>
